# Blender v2.79 (sub 0) OBJ File: ''
# www.blender.org
mtllib liteterrain.mtl
o Grid
v -1.000000 0.000000 1.000000
v 0.000000 0.000000 1.000000
v 1.000000 0.000000 1.000000
v -1.000000 0.000000 0.000000
v 0.000000 1.217140 0.000000
v 1.000000 -0.677184 0.000000
v -1.000000 0.000000 -1.000000
v 0.000000 0.000000 -1.000000
v 1.000000 0.000000 -1.000000
vt 0.000000 0.000000
vt 0.000000 0.000000
vt 0.000000 0.000000
vt 0.000000 0.000000
vt 0.000000 0.000000
vt 0.000000 0.000000
vt 0.000000 0.000000
vt 0.000000 0.000000
vt 0.000000 0.000000
vn 0.0000 1.0000 0.0000
vn 0.7689 0.4059 0.4940
vn 0.7689 0.4059 -0.4940
vn -0.6114 0.5023 0.6114
vn 0.0000 0.8280 -0.5607
vn -0.6114 0.5023 -0.6114
vn 0.0000 0.8280 0.5607
usemtl None
s off
f 2/1/1 4/2/1 1/3/1
f 2/1/2 6/4/2 5/5/2
f 4/2/1 8/6/1 7/7/1
f 6/4/3 8/6/3 5/5/3
f 2/1/4 5/5/4 4/2/4
f 2/1/5 3/8/5 6/4/5
f 4/2/6 5/5/6 8/6/6
f 6/4/7 9/9/7 8/6/7
