# Blender v2.79 (sub 0) OBJ File: ''
# www.blender.org
mtllib simpleplane.mtl
o Plane
v 1.000000 -0.000000 1.000000
v -1.000000 0.000000 -1.000000
v -1.000000 -0.000000 1.000000
v 1.000000 0.000000 -1.000000
v -1.000000 1.000000 -2.000000
v 1.000000 1.000000 -2.000000
v -1.000000 1.000000 -3.000000
v 1.000000 1.000000 -3.000000
vt 0.000100 0.000100
vt 0.999900 0.999900
vt 0.000100 0.999900
vt 0.999900 0.000100
vt 0.000084 0.000084
vt 0.707072 0.999916
vt 0.000084 0.999916
vt 0.000071 0.000071
vt 0.500000 0.999929
vt 0.000071 0.999929
vt 0.500000 0.000071
vt 0.707072 0.000084
vn 0.0000 1.0000 0.0000
vn 0.0000 0.9239 0.3827
usemtl None
s 1
f 1/1/1 2/2/2 3/3/1
f 1/1/1 4/4/2 2/2/2
f 4/5/2 5/6/2 2/7/2
f 6/8/2 7/9/1 5/10/2
f 6/8/2 8/11/1 7/9/1
f 4/5/2 6/12/2 5/6/2
